<svg id="svg" version="1.1" xmlns="http://www.w3.org/2000/svg" style="display: block;" viewBox="0 0 720 720"><path d="M0 0 C237.6 0 475.2 0 720 0 C720 237.6 720 475.2 720 720 C482.4 720 244.8 720 0 720 C0 482.4 0 244.8 0 0 Z " transform="translate(0,0)" style="fill: #050807;"/><path d="M0 0 C28.05 0 56.1 0 85 0 C85 172.92 85 345.84 85 524 C64.87 524 44.74 524 24 524 C16.7109375 509.421875 9.421875 494.84375 2.1328125 480.265625 C1.66476196 479.32956421 1.19671143 478.39350342 0.71447754 477.42907715 C-0.21411968 475.57180186 -1.14258819 473.71446221 -2.07092285 471.85705566 C-4.14778767 467.70201428 -6.22610488 463.54773042 -8.31054688 459.39648438 C-11.78774719 452.46781146 -15.22232814 445.52585722 -18.5 438.5 C-22.132627 430.7811539 -25.89028891 423.13651259 -29.73193359 415.52001953 C-32.1935427 410.6280809 -34.63824414 405.72766276 -37.08609009 400.8288269 C-38.53605523 397.92729884 -39.98681298 395.02616719 -41.4375 392.125 C-43.26170658 388.47684087 -45.08573011 384.82859119 -46.90893555 381.17993164 C-50.01215813 374.9704468 -53.11803369 368.76233318 -56.23336792 362.55891418 C-71.11348688 332.92742705 -71.11348688 332.92742705 -77.43432617 319.55737305 C-80.74363171 312.57800828 -84.12549831 305.6358121 -87.5234375 298.69921875 C-88.02069336 297.68396622 -88.51794922 296.66871368 -89.03027344 295.62269592 C-91.56714164 290.44506074 -94.10697807 285.26889734 -96.64941406 280.09399414 C-97.5918413 278.17205954 -98.53422595 276.25010406 -99.4765625 274.328125 C-99.91769379 273.43232224 -100.35882507 272.53651947 -100.81332397 271.61357117 C-101.42127304 270.37254387 -101.42127304 270.37254387 -102.04150391 269.10644531 C-102.39693268 268.38305969 -102.75236145 267.65967407 -103.11856079 266.91436768 C-104 265 -104 265 -105 262 C-105.33 348.46 -105.66 434.92 -106 524 C-134.38 524 -162.76 524 -192 524 C-192.24255878 488.35539341 -192.4456398 452.71156589 -192.56171862 417.06637001 C-192.57547619 412.85698936 -192.58971376 408.64761046 -192.60424805 404.43823242 C-192.60713346 403.60023046 -192.61001888 402.76222851 -192.61299173 401.89883255 C-192.66084044 388.33463422 -192.74756115 374.77094936 -192.84868076 361.20705552 C-192.95159338 347.28642134 -193.01265594 333.36605583 -193.03497344 319.44505686 C-193.05005813 310.8565483 -193.0976743 302.26949103 -193.18708114 293.68142932 C-193.24528485 287.79005915 -193.26278901 281.89943779 -193.24851515 276.00780106 C-193.24147666 272.6093191 -193.25216028 269.21336991 -193.31126022 265.81534004 C-193.6302999 244.3300854 -193.6302999 244.3300854 -189.59504318 239.42848301 C-186.8021253 237.08448758 -184.30800586 235.50043445 -181 234 C-178.11259377 232.48426911 -177.17588565 231.65589349 -175 229 C-174.10888722 223.95538592 -174.16090845 218.95701271 -174.1953125 213.85546875 C-174.18405772 212.36043663 -174.17017503 210.86542218 -174.15377808 209.37043762 C-174.11776992 205.44608182 -174.11736245 201.52250551 -174.12445068 197.59802246 C-174.1253642 193.58929538 -174.09249655 189.5808595 -174.0625 185.57226562 C-174.00866613 177.71473645 -173.99245237 169.85770886 -174 162 C-174.52548935 162.38744385 -175.0509787 162.7748877 -175.59239197 163.17407227 C-192.83847253 175.88858696 -192.83847253 175.88858696 -198.37890625 179.9375 C-206.95917601 186.21359017 -215.42229391 192.6140007 -223.79101562 199.16967773 C-228.49282091 202.84751812 -233.25597143 206.41043122 -238.109375 209.88671875 C-241.89306413 212.65290229 -245.59932463 215.51520641 -249.3125 218.375 C-254.53560946 222.39521501 -259.79752965 226.33137832 -265.1875 230.125 C-269.79709181 233.37245939 -274.27540443 236.73909572 -278.6875 240.25 C-292.17671979 250.93544256 -305.63064428 261.16382529 -321 269 C-321.66676758 269.34756348 -322.33353516 269.69512695 -323.02050781 270.05322266 C-350.31056427 284.16630331 -383.63340095 291.09088131 -414 284 C-415.80597656 283.58041016 -415.80597656 283.58041016 -417.6484375 283.15234375 C-441.43933142 277.19255592 -462.28721339 265.99040542 -480 249 C-480.82113281 248.24203125 -481.64226562 247.4840625 -482.48828125 246.703125 C-504.21031627 226.02834205 -519.73257208 193.21958283 -521.18098831 163.25585175 C-521.2693461 158.97037059 -521.24798574 154.68549173 -521.22705078 150.39941406 C-521.22648544 148.76219693 -521.22680563 147.12497929 -521.22793579 145.48776245 C-521.2285055 141.07947738 -521.21681358 136.67130295 -521.20278788 132.2630434 C-521.19021633 127.64263291 -521.18910498 123.02221939 -521.18673706 118.40179443 C-521.18054107 109.66859229 -521.1641559 100.9354407 -521.14403808 92.20226073 C-521.11742186 80.38964899 -521.10669123 68.57702324 -521.09503365 56.76438904 C-521.0762738 38.17622155 -521.03641564 19.58816071 -521 1 C-493.28 1 -465.56 1 -437 1 C-436.97421875 11.786875 -436.9484375 22.57375 -436.921875 33.6875 C-436.89669375 40.54168456 -436.87051232 47.39584142 -436.83984375 54.25 C-436.79140363 65.11718522 -436.74692091 75.98427834 -436.72900391 86.8515625 C-436.7159326 94.76833166 -436.68882953 102.68491208 -436.64538693 110.6015749 C-436.62289439 114.78728484 -436.60708191 118.97276309 -436.60811615 123.15853882 C-436.60887007 127.1116591 -436.590631 131.06426958 -436.55883217 135.01725769 C-436.55042805 136.45536466 -436.54851728 137.89352947 -436.55419731 139.33164978 C-436.61644092 157.53967457 -432.44132901 174.13503687 -419.69921875 187.69921875 C-408.74265945 197.03845671 -396.04139238 199.0019486 -382 198 C-369.87210213 195.48234623 -359.04866611 189.29629533 -352 179 C-346.65971259 169.65968177 -343.90316998 161.11913466 -343.84178162 150.2358551 C-343.83684364 149.59283996 -343.83190566 148.94982482 -343.82681805 148.28732437 C-343.81157665 146.15322188 -343.8031191 144.01914914 -343.79467773 141.88500977 C-343.78508867 140.34704837 -343.775078 138.80908955 -343.76467896 137.27113342 C-343.73773516 133.11054017 -343.71666888 128.9499357 -343.69667697 124.78930402 C-343.67475219 120.43576359 -343.64739537 116.08225733 -343.62062073 111.72874451 C-343.57078138 103.49124237 -343.52581019 95.25372117 -343.48259836 87.01618189 C-343.42389982 75.88020056 -343.35766018 64.74426423 -343.29184818 53.6083231 C-343.18841056 36.07224576 -343.09503033 18.53612958 -343 1 C-314.62 1 -286.24 1 -257 1 C-257 38.62 -257 76.24 -257 115 C-247.71248185 108.04586872 -247.71248185 108.04586872 -238.5 101 C-228.39165947 93.20205102 -218.1356039 85.60842688 -207.84912109 78.04785156 C-207.07906738 77.48163086 -206.30901367 76.91541016 -205.515625 76.33203125 C-204.83790039 75.83421143 -204.16017578 75.3363916 -203.46191406 74.82348633 C-202.64948242 74.22173584 -201.83705078 73.61998535 -201 73 C-200.33093628 72.66490417 -199.66187256 72.32980835 -198.97253418 71.98455811 C-196.43437441 70.53287883 -194.81654528 69.30685364 -193 67 C-191.80860506 62.00748433 -191.92698416 57.07256711 -192 51.9765625 C-191.99247562 50.50537983 -191.98143648 49.03421131 -191.96704102 47.56307983 C-191.93868134 43.70578326 -191.95784562 39.85015222 -191.98712158 35.99291992 C-192.01233386 31.35720625 -191.97815001 26.72159105 -191.95399475 22.08592224 C-191.92397934 15.05631361 -191.96911239 8.03079166 -192 1 C-173.52 1 -155.04 1 -136 1 C-129.20384313 14.02596733 -122.5905688 26.83757974 -116.359375 40.09375 C-114.22144709 44.5935459 -111.92964424 48.99237152 -109.5625 53.375 C-104.51857768 62.73400567 -99.99628695 72.32983754 -95.45019531 81.93798828 C-88.59584708 96.41058685 -81.62408617 110.81629098 -74.42993164 125.12304688 C-69.61297422 134.72395272 -64.98477688 144.41042979 -60.37548828 154.11230469 C-58.07773414 158.93620174 -55.75541916 163.74826952 -53.4375 168.5625 C-49.93851087 175.8301167 -46.47173932 183.11129903 -43.046875 190.4140625 C-31.87145958 214.21603466 -20.22742675 237.76408663 -8.39331055 261.24511719 C-5.9199936 266.15895182 -3.46020599 271.07958802 -1 276 C-0.505 139.38 -0.505 139.38 0 0 Z " transform="translate(582,99)" style="fill: #FEFEFE;"/><path d="M0 0 C2.4458722 0.05023656 4.89184395 0.0958505 7.33789062 0.13671875 C13.28995661 0.24614167 19.23825743 0.41280716 25.1875 0.625 C25.28076646 13.83944045 25.35154971 27.05380076 25.39474869 40.2685051 C25.41549691 46.40666194 25.44357757 52.54459124 25.48925781 58.68261719 C25.53317548 64.62194255 25.55673268 70.56105104 25.56700897 76.50052643 C25.57431883 78.75039324 25.58858919 81.00025012 25.61042023 83.25002289 C25.78175589 101.66309995 24.17013321 119.13772483 17.0625 136.3125 C16.67779541 137.26600342 16.29309082 138.21950684 15.89672852 139.2019043 C10.49751826 152.17674222 3.49049182 164.06089535 -5.8125 174.625 C-6.52019531 175.45257812 -7.22789062 176.28015625 -7.95703125 177.1328125 C-23.37916304 194.79669024 -42.0126377 206.53949309 -63.8125 214.625 C-64.44913574 214.87467529 -65.08577148 215.12435059 -65.74169922 215.3815918 C-90.4544703 224.98874968 -121.79905237 225.08973813 -146.8125 216.625 C-147.78268066 216.30474854 -147.78268066 216.30474854 -148.77246094 215.97802734 C-156.08290256 213.51089842 -163.03725681 210.30059561 -169.8125 206.625 C-170.78058594 206.10035156 -171.74867188 205.57570313 -172.74609375 205.03515625 C-179.66773756 201.14669138 -185.80945982 196.8111127 -191.8125 191.625 C-192.75867188 190.82449219 -193.70484375 190.02398438 -194.6796875 189.19921875 C-213.77199835 172.46245274 -224.78576241 152.07172934 -233.8125 128.625 C-234.09399902 127.93083984 -234.37549805 127.23667969 -234.66552734 126.52148438 C-240.73259471 110.34788752 -240.19367314 92.97810751 -240 76 C-239.938125 68.28625 -239.87625 60.5725 -239.8125 52.625 C-211.7625 52.625 -183.7125 52.625 -154.8125 52.625 C-154.4825 66.485 -154.1525 80.345 -153.8125 94.625 C-148.7396488 109.84355361 -142.94100855 122.53983381 -128.32421875 130.44140625 C-116.97757769 135.78826821 -104.80299907 136.33355289 -92.8125 132.625 C-89.875 132.5 -89.875 132.5 -87.8125 132.625 C-87.8125 131.965 -87.8125 131.305 -87.8125 130.625 C-85.87109375 129.36328125 -85.87109375 129.36328125 -83.25 127.9375 C-72.07549655 121.36518979 -66.37184985 112.07495298 -62.8125 99.625 C-61.65627903 92.8060275 -61.74401102 86.1047667 -61.82722664 79.20170784 C-61.86992496 74.93482191 -61.85749905 70.6676256 -61.85733891 66.40056705 C-61.86033948 62.66909832 -61.88116753 58.93929907 -61.93920898 55.20825195 C-61.9946603 51.57368354 -62.00075978 47.94189682 -61.97451591 44.30703545 C-61.97328982 42.93278594 -61.98953112 41.5583943 -62.02443123 40.18458748 C-62.28064428 29.54346803 -62.28064428 29.54346803 -58.69528198 24.85836792 C-56.17023622 22.54858217 -53.6268516 20.56782044 -50.8125 18.625 C-49.51089684 17.65754601 -49.51089684 17.65754601 -48.18299866 16.67054749 C-46.36261733 15.32507435 -44.51614749 14.01433332 -42.64794922 12.73608398 C-39.74571757 10.69698956 -39.74571757 10.69698956 -37.35595703 8.06274414 C-26.66335736 -2.35281041 -14.08193214 -0.50404701 0 0 Z " transform="translate(299.8125,403.375)" style="fill: #FDFDFD;"/><path d="M0 0 C2.75 0.25 2.75 0.25 5 1 C0.375 5.875 0.375 5.875 -3 7 C-3.33 6.01 -3.66 5.02 -4 4 C-2.3125 1.9375 -2.3125 1.9375 0 0 Z " transform="translate(400,329)" style="fill: #161717;"/><path d="M0 0 C3.77518545 1.25839515 4.19759138 2.55903808 6 6 C6.33 6.99 6.66 7.98 7 9 C6.01 9.33 5.02 9.66 4 10 C3.32845067 8.71086513 2.66291141 7.41859796 2 6.125 C1.62875 5.40570313 1.2575 4.68640625 0.875 3.9453125 C0 2 0 2 0 0 Z " transform="translate(519,248)" style="fill: #0E100F;"/><path d="M0 0 C0 3.77910478 -0.99703962 4.46106101 -3.5 7.1875 C-4.1496875 7.90292969 -4.799375 8.61835937 -5.46875 9.35546875 C-5.9740625 9.89816406 -6.479375 10.44085937 -7 11 C-7.33 10.34 -7.66 9.68 -8 9 C-8.66 8.67 -9.32 8.34 -10 8 C-9.44570312 7.59007812 -8.89140625 7.18015625 -8.3203125 6.7578125 C-7.59585938 6.21898437 -6.87140625 5.68015625 -6.125 5.125 C-5.04605469 4.32449219 -5.04605469 4.32449219 -3.9453125 3.5078125 C-1.91747368 2.00126838 -1.91747368 2.00126838 0 0 Z " transform="translate(226,524)" style="fill: #D1D2D2;"/><path d="M0 0 C1.98 1.65 3.96 3.3 6 5 C2.25 6.125 2.25 6.125 0 5 C0 3.35 0 1.7 0 0 Z " transform="translate(96,342)" style="fill: #303332;"/><path d="M0 0 C-0.125 1.875 -0.125 1.875 -1 4 C-4.0625 5.25 -4.0625 5.25 -7 6 C-5.81636731 2.44910192 -3.99368042 0 0 0 Z " transform="translate(407,262)" style="fill: #131313;"/></svg>