<?xml version="1.0" encoding="UTF-8"?>
<!-- Generator: visioncortex VTracer -->
<svg id="svg" version="1.1" xmlns="http://www.w3.org/2000/svg" style="display: block;" viewBox="0 0 967 967"><path d="M0 0 C319.11 0 638.22 0 967 0 C967 319.11 967 638.22 967 967 C647.89 967 328.78 967 0 967 C0 647.89 0 328.78 0 0 Z " transform="translate(0,0)" style="fill: #0F34A2;"/><path d="M0 0 C34.98 0 69.96 0 106 0 C106 53.79 106 107.58 106 163 C71.02 163 36.04 163 0 163 C0 109.21 0 55.42 0 0 Z " transform="translate(395,402)" style="fill: #FCFDFE;"/><path d="M0 0 C34.32 0 68.64 0 104 0 C104 54.12 104 108.24 104 164 C69.68 164 35.36 164 0 164 C0 109.88 0 55.76 0 0 Z " transform="translate(174,402)" style="fill: #F9FAFC;"/><path d="M0 0 C34.32 0 68.64 0 104 0 C104 53.79 104 107.58 104 163 C69.68 163 35.36 163 0 163 C0 109.21 0 55.42 0 0 Z " transform="translate(691,402)" style="fill: #FCFCFD;"/><path d="M0 0 C33.99 0 67.98 0 103 0 C103 53.79 103 107.58 103 163 C69.01 163 35.02 163 0 163 C0 109.21 0 55.42 0 0 Z " transform="translate(285,402)" style="fill: #FAFBFD;"/><path d="M0 0 C31.68 0 63.36 0 96 0 C96 54.12 96 108.24 96 164 C64.32 164 32.64 164 0 164 C0 109.88 0 55.76 0 0 Z " transform="translate(72,402)" style="fill: #FAFBFD;"/><path d="M0 0 C31.35 0 62.7 0 95 0 C95 53.79 95 107.58 95 163 C63.65 163 32.3 163 0 163 C0 109.21 0 55.42 0 0 Z " transform="translate(802,402)" style="fill: #FCFCFE;"/><path d="M0 0 C30.36 0 60.72 0 92 0 C92 54.12 92 108.24 92 164 C69.5084375 164.0309375 69.5084375 164.0309375 46.5625 164.0625 C39.44989624 164.07615601 39.44989624 164.07615601 32.19360352 164.09008789 C26.42175293 164.09460449 26.42175293 164.09460449 23.72325134 164.09544373 C21.8307929 164.09698348 19.93833546 164.10050903 18.04588318 164.10557556 C15.18625167 164.11285146 12.32668033 164.11390747 9.46704102 164.11352539 C8.19365671 164.11892255 8.19365671 164.11892255 6.89454746 164.12442875 C1.11402634 164.11402634 1.11402634 164.11402634 0 163 C-0.09687035 160.89906175 -0.12186861 158.79480483 -0.12025452 156.69163513 C-0.12110894 156.02516167 -0.12196337 155.35868821 -0.12284368 154.67201859 C-0.12450035 152.42251366 -0.11897411 150.17308212 -0.11352539 147.92358398 C-0.11324353 146.31754559 -0.11340122 144.71150707 -0.1139679 143.10546875 C-0.11425593 138.73168933 -0.10835832 134.35793708 -0.10139394 129.984164 C-0.09516131 125.41840422 -0.09455667 120.85264387 -0.09336853 116.28688049 C-0.09025495 107.63478695 -0.08204119 98.98270597 -0.07201904 90.33061796 C-0.05877374 78.64340801 -0.05335822 66.95619464 -0.04751682 55.26897907 C-0.03810132 36.84597663 -0.01818259 18.42300071 0 0 Z " transform="translate(593,402)" style="fill: #F7F8FB;"/><path d="M0 0 C26.07 0 52.14 0 79 0 C79 54.12 79 108.24 79 164 C52.93 164 26.86 164 0 164 C0 109.88 0 55.76 0 0 Z " transform="translate(508,402)" style="fill: #F9FAFC;"/><path d="M0 0 C8.91 0 17.82 0 27 0 C28.175625 2.2275 29.35125 4.455 30.5625 6.75 C33.17048067 11.66767691 35.85142307 16.52115417 38.6875 21.3125 C41.22468567 25.60223379 43.50108146 29.94593241 45.6796875 34.42578125 C47.72101623 38.40576833 50.037888 42.21650708 52.3515625 46.04296875 C54.13507904 49.24231003 55.55711948 52.6332788 57 56 C57.33 37.52 57.66 19.04 58 0 C66.91 0 75.82 0 85 0 C85 38.28 85 76.56 85 116 C76.42 116 67.84 116 59 116 C56.11965894 111.3914543 53.37176908 106.99270505 50.8359375 102.234375 C50.27003906 101.17734375 49.70414062 100.1203125 49.12109375 99.03125 C48.25677734 97.40703125 48.25677734 97.40703125 47.375 95.75 C41.34353112 84.44626811 35.17564121 73.22843857 29 62 C28.67 79.82 28.34 97.64 28 116 C18.76 116 9.52 116 0 116 C0 77.72 0 39.44 0 0 Z " transform="translate(294,425)" style="fill: #1035A2;"/><path d="M0 0 C8.91 0 17.82 0 27 0 C27.01458252 2.26560791 27.02916504 4.53121582 27.04418945 6.86547852 C27.09460965 14.36539628 27.16121778 21.86510804 27.23571491 29.36482334 C27.28037212 33.91027096 27.31963842 38.45562992 27.34643555 43.0012207 C27.37251502 47.39100752 27.41295006 51.78045228 27.46318626 56.17002678 C27.47982364 57.84164094 27.49135737 59.51331422 27.49761391 61.18499947 C27.50728932 63.53328116 27.53538814 65.88069392 27.56762695 68.22875977 C27.56547432 69.25699356 27.56547432 69.25699356 27.5632782 70.30599976 C27.67835023 76.26326487 29.19815775 80.80400476 33 85.4375 C37.59717048 87.83185963 41.92612572 87.74121356 47 87 C51.69283519 84.55581501 53.42877091 80.89822239 55 76 C55.28562578 73.33016249 55.43794873 70.89205796 55.43237305 68.22875977 C55.4425647 67.48646622 55.45275635 66.74417267 55.46325684 65.97938538 C55.49321284 63.54998049 55.50262573 61.120971 55.51171875 58.69140625 C55.5285784 56.99745898 55.54673037 55.30352412 55.56611633 53.60960388 C55.61348296 49.16932047 55.64337835 44.7290874 55.66955566 40.28863525 C55.69942874 35.75026511 55.7459358 31.21206819 55.79101562 26.67382812 C55.87689703 17.7826231 55.94277053 8.89143566 56 0 C64.91 0 73.82 0 83 0 C83.06796393 10.38837356 83.12292432 20.77659777 83.15543652 31.16514397 C83.17104617 35.98973777 83.19219796 40.81417066 83.22631836 45.63867188 C83.25908023 50.30062553 83.27688831 54.96242506 83.28463173 59.62448502 C83.29014517 61.39695789 83.30091111 63.16942299 83.31719017 64.94182968 C83.45547572 80.63173798 80.81022322 91.43241225 72.1875 104.8125 C64.42136844 112.57863156 55.20972258 116.32516387 44.29907227 116.46777344 C43.41662842 116.4577832 42.53418457 116.44779297 41.625 116.4375 C40.70323975 116.43137695 39.78147949 116.42525391 38.83178711 116.41894531 C27.86823142 116.16728781 19.80120014 112.95224402 11.4375 105.8125 C0.4478505 93.13213519 -0.58816729 77.99433907 -0.390625 62.01171875 C-0.38314688 60.21426529 -0.37746139 58.41680358 -0.37347412 56.61933899 C-0.35834127 51.93226854 -0.31916904 47.24570909 -0.2746582 42.55883789 C-0.233436 37.75869658 -0.21540607 32.95847115 -0.1953125 28.15820312 C-0.15266012 18.77187698 -0.08241451 9.3860613 0 0 Z " transform="translate(185,425)" style="fill: #1136A3;"/><path d="M0 0 C23.76 0 47.52 0 72 0 C72 8.58 72 17.16 72 26 C57.15 26 42.3 26 27 26 C27 32.27 27 38.54 27 45 C37.89 45 48.78 45 60 45 C60 53.91 60 62.82 60 72 C49.11 72 38.22 72 27 72 C27 77.94 27 83.88 27 90 C41.52 90 56.04 90 71 90 C71 98.58 71 107.16 71 116 C47.57 116 24.14 116 0 116 C0 77.72 0 39.44 0 0 Z " transform="translate(603,425)" style="fill: #1337A3;"/><path d="M0 0 C6.13329642 4.90008914 10.54922719 10.96774329 14 18 C14 18.66 14 19.32 14 20 C12.19580078 21.42041016 12.19580078 21.42041016 9.6953125 23.0390625 C8.80199219 23.61914062 7.90867187 24.19921875 6.98828125 24.796875 C6.04339844 25.40015625 5.09851563 26.0034375 4.125 26.625 C3.18785156 27.23601562 2.25070312 27.84703125 1.28515625 28.4765625 C-5.73223005 33 -5.73223005 33 -8 33 C-9.078125 31.35546875 -9.078125 31.35546875 -10.25 29.1875 C-12.65340314 25.24005007 -14.44905398 23.40029108 -19 22 C-24.24562513 21.24240515 -28.95515393 21.48281487 -33.38427734 24.60961914 C-37.52993789 28.17709222 -38.83324565 32.35270285 -39.3659668 37.61523438 C-39.52128399 41.16580437 -39.51695346 44.71012759 -39.46655273 48.26318359 C-39.43756205 50.49522278 -39.44597538 52.72488371 -39.45898438 54.95703125 C-39.71937991 66.54517807 -39.71937991 66.54517807 -34.58374023 76.53686523 C-28.7919052 81.65907236 -23.33226928 81.35613879 -16 81 C-12.46216773 80.82651516 -12.46216773 80.82651516 -10 79 C-8.8637612 75.96818232 -8.46315153 73.24206068 -8 70 C-12.29 70 -16.58 70 -21 70 C-21 62.41 -21 54.82 -21 47 C-8.46 47 4.08 47 17 47 C17.16132587 52.69505938 17.30043866 58.38210666 17.38452148 64.07763672 C17.41958581 66.01183009 17.46725297 67.94583976 17.52807617 69.87939453 C18.08477359 88.03989348 18.08477359 88.03989348 13.6796875 93.11328125 C11.83935547 94.67700195 11.83935547 94.67700195 10 96 C8.88768422 97.05396579 7.78229516 98.11534617 6.6875 99.1875 C-5.26730887 109.06906499 -19.10395116 110.3713641 -34 109 C-44.38049519 107.16729568 -52.23323582 101.31583767 -58.22265625 92.86328125 C-66.20355523 80.20864272 -67.49523419 67.20973226 -67.3125 52.4375 C-67.31572266 51.13103516 -67.31894531 49.82457031 -67.32226562 48.47851562 C-67.23206617 32.02121461 -65.18713435 16.56269691 -53.3046875 4.2421875 C-38.22782635 -9.21205182 -17.09458579 -11.01339707 0 0 Z " transform="translate(469,432)" style="fill: #1136A3;"/><path d="M0 0 C9.57 0 19.14 0 29 0 C30.794375 3.83625 30.794375 3.83625 32.625 7.75 C35.97512699 14.89019051 39.42392923 21.96976997 43 29 C48.54084019 19.43615615 53.83668623 9.77341535 59 0 C68.24 0 77.48 0 87 0 C85.39082382 4.82752855 83.56374271 9.02093977 81.18359375 13.4609375 C80.8082399 14.16916656 80.43288605 14.87739563 80.04615784 15.60708618 C79.25063402 17.10591049 78.452894 18.60356036 77.65307617 20.10009766 C76.46098796 22.33104322 75.27576784 24.56551933 74.09179688 26.80078125 C73.31026982 28.27103219 72.52836915 29.74108459 71.74609375 31.2109375 C71.36045258 31.93762634 70.9748114 32.66431519 70.57748413 33.4130249 C68.58328061 37.14363443 66.53291944 40.82367354 64.36767578 44.45800781 C63.94519058 45.17574371 63.52270538 45.89347961 63.0874176 46.63296509 C62.28341101 47.99069907 61.46572748 49.34046204 60.63218689 50.68026733 C58.82119731 53.75153857 57.98326484 55.65375895 58.15722656 59.25292969 C59.22189357 62.72327535 60.8122371 65.51742149 62.6875 68.625 C63.4257003 69.87220791 64.16134771 71.1209301 64.89453125 72.37109375 C65.25627441 72.98710449 65.61801758 73.60311523 65.99072266 74.23779297 C67.92014889 77.60658797 69.58786586 81.10218811 71.296875 84.5859375 C73.51237983 89.02711002 75.81414113 93.42035173 78.125 97.8125 C78.75510986 99.01362427 78.75510986 99.01362427 79.39794922 100.23901367 C81.30198844 103.85171918 83.23527153 107.4282995 85.3046875 110.94921875 C87 114 87 114 87 116 C77.43 116 67.86 116 58 116 C51.625 103.1875 51.625 103.1875 49.62353516 99.15698242 C49.10065918 98.10873291 48.5777832 97.0604834 48.0390625 95.98046875 C47.23782959 94.37014771 47.23782959 94.37014771 46.42041016 92.72729492 C45.00670558 89.89345401 45.00670558 89.89345401 43 87 C38.38 96.57 33.76 106.14 29 116 C19.43 116 9.86 116 0 116 C1.32584152 112.02247543 2.33216067 109.10464244 4.29296875 105.5859375 C4.7516333 104.75578125 5.21029785 103.925625 5.68286133 103.0703125 C6.17939209 102.18085937 6.67592285 101.29140625 7.1875 100.375 C8.25824664 98.42471746 9.32853561 96.47418359 10.3984375 94.5234375 C12.27233982 91.1214062 14.15283264 87.7233099 16.04785156 84.33300781 C17.80763915 81.18363038 19.55088479 78.02553135 21.28530884 74.86212158 C21.96702771 73.62628207 22.65479484 72.3937586 23.34872437 71.16473389 C24.32701938 69.43076084 25.28309268 67.68430808 26.23828125 65.9375 C27.074198 64.43509766 27.074198 64.43509766 27.92700195 62.90234375 C29.48390224 58.69109673 28.77509079 55.7899523 27.02294922 51.74365234 C26.62092285 51.03160645 26.21889648 50.31956055 25.8046875 49.5859375 C25.34296143 48.75562012 24.88123535 47.92530273 24.40551758 47.06982422 C23.64791138 45.73588623 23.64791138 45.73588623 22.875 44.375 C21.79184898 42.42770577 20.70987825 40.47975468 19.62890625 38.53125 C19.0477002 37.48839844 18.46649414 36.44554687 17.86767578 35.37109375 C14.81108591 29.85404892 11.81036179 24.30732872 8.82354736 18.7522583 C7.82432327 16.89695281 6.81927296 15.04488514 5.81396484 13.19287109 C4.89478271 11.48478271 4.89478271 11.48478271 3.95703125 9.7421875 C3.41022705 8.7301123 2.86342285 7.71803711 2.30004883 6.67529297 C1 4 1 4 0 0 Z " transform="translate(700,425)" style="fill: #1035A2;"/><path d="M0 0 C6.78919926 4.55552331 10.91819226 10.60229567 13.8046875 18.2109375 C13.8046875 19.2009375 13.8046875 20.1909375 13.8046875 21.2109375 C12.98226562 21.52546875 12.15984375 21.84 11.3125 22.1640625 C4.45454782 24.79320814 -2.38553417 27.45935664 -9.1953125 30.2109375 C-9.54142578 29.39689453 -9.54142578 29.39689453 -9.89453125 28.56640625 C-11.42175964 25.21616215 -12.66816078 22.67951681 -15.4453125 20.2109375 C-19.33204519 18.79758016 -22.0568531 18.81044143 -26.1953125 19.2109375 C-28.34311327 20.10851306 -28.34311327 20.10851306 -29.1953125 22.2109375 C-30.11415658 25.53802007 -30.11415658 25.53802007 -29.1953125 29.2109375 C-24.77168895 35.3548591 -16.99373876 38.70847507 -10.56347656 42.37158203 C-4.37654897 45.95684815 0.82861968 50.0512866 5.8046875 55.2109375 C6.39636719 55.81679688 6.98804688 56.42265625 7.59765625 57.046875 C12.6182196 62.5261071 16.21563214 68.7004816 16.8046875 76.2109375 C16.89105469 77.01273437 16.97742188 77.81453125 17.06640625 78.640625 C17.61543768 87.25431812 14.78941802 93.52243616 9.234375 100.05859375 C-0.87469832 109.60605188 -13.62574627 110.6221488 -26.77734375 110.41796875 C-36.58627411 110.08186287 -44.59845175 106.41600697 -52.1953125 100.2109375 C-57.34455733 94.55312528 -59.08975502 90.94983985 -60.1953125 83.2109375 C-48.3153125 78.2609375 -48.3153125 78.2609375 -36.1953125 73.2109375 C-34.5453125 75.8509375 -32.8953125 78.4909375 -31.1953125 81.2109375 C-28.19515613 83.73738497 -26.542524 84.16829749 -22.6328125 84.6484375 C-19.20852306 84.44672989 -19.20852306 84.44672989 -16.6953125 82.7109375 C-14.93493251 79.77697084 -14.94130678 77.68408696 -15.25 74.30859375 C-18.52902663 67.03240656 -29.39877082 62.60218861 -35.87695312 58.64648438 C-44.59487042 53.21653589 -54.02157703 47.01176277 -58.1953125 37.2109375 C-59.93862454 29.02299452 -61.00568081 19.46895868 -56.51171875 12.046875 C-56.07730469 11.44101562 -55.64289062 10.83515625 -55.1953125 10.2109375 C-54.70933594 9.52257812 -54.22335937 8.83421875 -53.72265625 8.125 C-41.06819013 -7.96980561 -17.12251916 -9.44935705 0 0 Z " transform="translate(871.1953125,430.7890625)" style="fill: #1135A2;"/><path d="M0 0 C8.58 0 17.16 0 26 0 C26.09057168 11.56182311 26.16387197 23.12340841 26.20724869 34.68550682 C26.22807324 40.05495825 26.25629689 45.42415319 26.30175781 50.79345703 C26.34539886 55.98061246 26.36917567 61.16752203 26.37950897 66.35484695 C26.38686765 68.32829276 26.40123711 70.30172597 26.42292023 72.27506638 C26.56795954 86.02884775 26.08092238 97.54571012 16 108 C6.21700894 116.09626846 -5.80074991 117.09574103 -18 116 C-24.90769971 114.44451314 -30.60408074 111.55655404 -36 107 C-36 106.34 -36 105.68 -36 105 C-36.99 104.67 -37.98 104.34 -39 104 C-40.09765625 102.3984375 -40.09765625 102.3984375 -41.0625 100.375 C-41.54396484 99.39660156 -41.54396484 99.39660156 -42.03515625 98.3984375 C-44.76009198 91.62471062 -45.25863327 85.75800118 -45.125 78.5625 C-45.063125 73.8290625 -45.063125 73.8290625 -45 69 C-36.42 69 -27.84 69 -19 69 C-18.505 74.94 -18.505 74.94 -18 81 C-17.67 82.65 -17.34 84.3 -17 86 C-14.30549738 86.89816754 -12.36388595 87.25217363 -9.5625 87.375 C-8.41974609 87.44847656 -8.41974609 87.44847656 -7.25390625 87.5234375 C-3.78369372 86.71753026 -2.88659384 84.96276854 -1 82 C-0.60482573 79.17177125 -0.43512495 76.72975264 -0.45410156 73.9050293 C-0.44376389 73.10450638 -0.43342621 72.30398346 -0.42277527 71.47920227 C-0.39337392 68.84400179 -0.39184869 66.20957027 -0.390625 63.57421875 C-0.37564151 61.74288978 -0.35891401 59.91157433 -0.34051514 58.08027649 C-0.29684821 53.2683754 -0.27684399 48.4566566 -0.26177979 43.64459229 C-0.24220635 38.73105087 -0.20023658 33.81770624 -0.16015625 28.90429688 C-0.084861 19.26955865 -0.03663604 9.63496287 0 0 Z " transform="translate(129,425)" style="fill: #1034A2;"/><path d="M0 0 C8.58 0 17.16 0 26 0 C26 29.7 26 59.4 26 90 C36.23 90 46.46 90 57 90 C57 98.58 57 107.16 57 116 C38.19 116 19.38 116 0 116 C0 77.72 0 39.44 0 0 Z " transform="translate(520,425)" style="fill: #1035A2;"/></svg>