<?xml version="1.0" standalone="no"?>
<!DOCTYPE svg PUBLIC "-//W3C//DTD SVG 20010904//EN"
 "http://www.w3.org/TR/2001/REC-SVG-20010904/DTD/svg10.dtd">
<svg version="1.0" xmlns="http://www.w3.org/2000/svg"
 width="967.000000pt" height="967.000000pt" viewBox="0 0 967.000000 967.000000"
 preserveAspectRatio="xMidYMid meet">

<g transform="translate(0.000000,967.000000) scale(0.100000,-0.100000)"
fill="#000000" stroke="none">
<path d="M5 9658 c-3 -7 -4 -2182 -3 -4833 l3 -4820 4830 0 4830 0 0 4830 0
4830 -4828 3 c-3857 2 -4829 0 -4832 -10z m1673 -4825 l-3 -818 -477 -3 -478
-2 0 820 0 820 480 0 480 0 -2 -817z m1102 -3 l0 -820 -517 2 -518 3 -3 818
-2 817 520 0 520 0 0 -820z m1100 0 l0 -820 -515 0 -515 0 0 820 0 820 515 0
515 0 0 -820z m1130 0 l0 -820 -530 0 -530 0 0 820 0 820 530 0 530 0 0 -820z
m858 3 l-3 -818 -392 -3 -393 -2 0 820 0 820 395 0 395 0 -2 -817z m980 0 l-3
-818 -455 0 -455 0 -3 818 -2 817 460 0 460 0 -2 -817z m1102 -3 l0 -820 -520
0 -520 0 0 820 0 820 520 0 520 0 0 -820z m1020 0 l0 -820 -475 0 -475 0 0
820 0 820 475 0 475 0 0 -820z"/>
<path d="M1288 5005 l-3 -415 -27 -26 c-30 -30 -73 -36 -112 -15 -33 18 -46
52 -46 121 l0 60 -130 0 -130 0 0 -92 c0 -122 22 -196 78 -263 123 -149 413
-152 544 -7 87 96 88 103 88 615 l0 437 -130 0 -129 0 -3 -415z"/>
<path d="M1850 5028 c0 -435 4 -472 62 -580 61 -114 164 -176 311 -186 135 -8
257 29 329 101 18 18 48 61 66 95 57 106 62 153 62 580 l0 383 -132 -3 -133
-3 -5 -385 c-4 -332 -7 -389 -21 -415 -71 -129 -236 -95 -268 55 -7 31 -11
184 -11 400 l0 350 -130 0 -130 0 0 -392z"/>
<path d="M2940 4840 l0 -580 135 0 135 0 0 280 c0 154 3 280 8 280 4 0 75
-125 158 -278 l150 -277 132 -3 132 -3 0 581 0 580 -135 0 -135 0 -2 -287 -3
-288 -155 285 -155 285 -133 3 -132 3 0 -581z"/>
<path d="M4400 5410 c-181 -23 -299 -126 -354 -309 -22 -74 -23 -440 -1 -520
36 -137 102 -224 210 -277 176 -87 407 -43 548 105 l57 60 0 205 0 206 -185 0
-185 0 0 -110 0 -110 60 0 c60 0 60 0 60 -29 0 -44 -8 -58 -47 -82 -65 -41
-166 -26 -220 33 -45 48 -53 87 -53 260 0 181 12 227 72 269 37 27 104 35 152
19 36 -12 96 -73 96 -98 0 -8 6 -12 15 -8 11 4 181 114 203 131 8 6 -71 125
-105 157 -47 46 -125 85 -184 93 -24 4 -53 8 -64 9 -11 2 -45 0 -75 -4z"/>
<path d="M5200 4840 l0 -580 285 0 285 0 0 130 0 130 -155 0 -155 0 -2 448 -3
447 -127 3 -128 3 0 -581z"/>
<path d="M6040 4840 l0 -580 350 0 350 0 0 130 0 130 -225 0 -226 0 3 93 3 92
163 3 162 2 0 130 0 130 -165 0 -166 0 3 93 3 92 223 3 222 2 0 130 0 130
-350 0 -350 0 0 -580z"/>
<path d="M7005 5403 c3 -10 71 -138 151 -285 79 -148 144 -273 144 -280 0 -6
-67 -137 -150 -291 -82 -154 -150 -281 -150 -283 0 -2 65 -4 143 -4 l144 0 72
150 c40 83 74 150 77 150 3 0 37 -67 76 -150 l71 -150 144 0 c78 0 143 2 143
4 0 2 -67 129 -150 282 -82 154 -150 284 -150 290 0 7 67 137 150 290 82 154
150 282 150 287 0 4 -63 7 -140 7 l-140 0 -77 -155 -78 -155 -77 155 -78 155
-141 0 c-130 0 -141 -1 -134 -17z"/>
<path d="M8435 5408 c-160 -20 -272 -105 -306 -231 -17 -63 -5 -159 28 -218
33 -62 85 -106 233 -198 178 -111 214 -164 154 -225 -48 -48 -128 -26 -173 48
-13 20 -25 36 -29 36 -3 0 -57 -21 -119 -47 -76 -32 -113 -52 -113 -63 0 -25
39 -92 78 -133 98 -101 251 -139 418 -103 114 24 188 70 230 142 38 64 46 113
34 192 -21 129 -109 233 -286 337 -128 76 -174 118 -174 159 0 96 135 102 191
9 12 -21 24 -40 25 -41 1 -2 52 15 113 39 100 38 111 44 105 63 -48 164 -213
258 -409 234z"/>
</g>
</svg>
